<svg width="36" height="36" viewBox="0 0 36 36" fill="none" xmlns="http://www.w3.org/2000/svg">
<g clip-path="url(#clip0_523_5091)">
<path d="M34.6875 20.2369C34.7923 19.5017 34.8465 18.7602 34.8496 18.0176C34.8496 13.547 33.0736 9.25952 29.9124 6.09836C26.7512 2.93719 22.4637 1.16127 17.9932 1.16127C17.2507 1.16437 16.5091 1.21851 15.774 1.32327C11.6189 -0.916041 6.4868 -0.163838 3.14935 3.1739C-0.188244 6.51135 -0.940447 11.6433 1.29887 15.7984C1.1941 16.5336 1.13996 17.2749 1.13672 18.0176C1.13672 27.3272 8.68365 34.874 17.9932 34.874C18.7357 34.8709 19.4773 34.8168 20.2125 34.712C24.3674 36.9513 29.4994 36.1991 32.8371 32.8614C36.1746 29.5239 36.9269 24.3918 34.6875 20.2369Z" fill="white"/>
<path d="M10.6861 21.384C16.5804 21.384 21.3586 16.6058 21.3586 10.7116C21.3586 4.81734 16.5804 0.0391235 10.6861 0.0391235C4.79189 0.0391235 0.0136719 4.81734 0.0136719 10.7116C0.0136719 16.6058 4.79189 21.384 10.6861 21.384Z" fill="#4230C4"/>
<path d="M25.2994 35.9962C31.1936 35.9962 35.9719 31.218 35.9719 25.3238C35.9719 19.4295 31.1936 14.6513 25.2994 14.6513C19.4052 14.6513 14.627 19.4295 14.627 25.3238C14.627 31.218 19.4052 35.9962 25.2994 35.9962Z" fill="#4230C4"/>
<path d="M17.6552 38.7267C28.669 38.7267 37.5975 29.7982 37.5975 18.7844C37.5975 7.77058 28.669 -1.1579 17.6552 -1.1579C6.64137 -1.1579 -2.28711 7.77058 -2.28711 18.7844C-2.28711 29.7982 6.64137 38.7267 17.6552 38.7267Z" fill="url(#paint0_radial_523_5091)"/>
<path d="M17.9932 34.874C27.3027 34.874 34.8496 27.3271 34.8496 18.0176C34.8496 8.70802 27.3027 1.16113 17.9932 1.16113C8.6836 1.16113 1.13672 8.70802 1.13672 18.0176C1.13672 27.3271 8.6836 34.874 17.9932 34.874Z" fill="url(#paint1_linear_523_5091)"/>
<path d="M17.9932 34.874C27.3027 34.874 34.8496 27.3271 34.8496 18.0176C34.8496 8.70802 27.3027 1.16113 17.9932 1.16113C8.6836 1.16113 1.13672 8.70802 1.13672 18.0176C1.13672 27.3271 8.6836 34.874 17.9932 34.874Z" fill="url(#paint2_linear_523_5091)"/>
<path d="M11.8464 15.948C11.45 15.2047 11.2524 14.3715 11.2729 13.5293C11.2475 12.4648 11.6109 11.4276 12.2953 10.6119C13.0153 9.79947 13.935 9.18918 14.9634 8.8414C16.0805 8.44722 17.2573 8.24897 18.4419 8.25541C19.2183 8.24999 19.9939 8.30836 20.7608 8.42993C21.3075 8.52157 21.8456 8.65922 22.3692 8.8414C22.8448 9.00563 23.2729 9.28389 23.616 9.65182C23.878 9.94703 24.0203 10.3294 24.015 10.7241C24.0246 10.931 23.9931 11.1377 23.9225 11.3325C23.8519 11.5272 23.7435 11.706 23.6035 11.8586C23.4728 11.9977 23.3141 12.1074 23.1379 12.1805C22.9616 12.2535 22.7719 12.2883 22.5812 12.2825C22.3142 12.2783 22.051 12.2189 21.8081 12.108C21.2208 11.8478 20.6169 11.627 20.0003 11.447C19.4266 11.297 18.8353 11.2258 18.2424 11.2353C17.4741 11.2095 16.7139 11.3994 16.048 11.7837C15.7678 11.954 15.5387 12.1968 15.3851 12.4865C15.2315 12.7762 15.159 13.1021 15.1753 13.4296C15.1708 13.8556 15.3317 14.2667 15.6241 14.5765C15.9819 14.9456 16.4045 15.2456 16.8709 15.4617C17.3821 15.7111 18.1177 16.0477 19.1649 16.4717L19.4891 16.5963C20.4781 16.9732 21.4264 17.4494 22.3193 18.0176C23.0308 18.4787 23.6312 19.0919 24.0773 19.813C24.5158 20.5693 24.736 21.4325 24.7132 22.3065C24.7485 23.3772 24.4381 24.4307 23.8279 25.3113C23.2019 26.1582 22.3318 26.7935 21.3344 27.1316C20.1547 27.5523 18.9085 27.755 17.6563 27.73C15.9443 27.7868 14.2411 27.4632 12.6692 26.7825C12.2665 26.6013 11.9121 26.3279 11.6345 25.9846C11.416 25.661 11.3028 25.2778 11.3103 24.8874C11.2967 24.6817 11.3287 24.4756 11.4042 24.2837C11.4796 24.0919 11.5966 23.9191 11.7467 23.7779C12.0584 23.502 12.4655 23.3588 12.8813 23.3788C13.3461 23.3854 13.8029 23.5007 14.2152 23.7154C14.7264 23.9648 15.1254 24.1643 15.462 24.2889C15.7958 24.4299 16.1423 24.5384 16.4969 24.6131C16.9344 24.7126 17.3824 24.7587 17.831 24.7503C18.625 24.8088 19.4156 24.5979 20.0751 24.1518C20.3242 23.9611 20.5234 23.713 20.6558 23.4286C20.7883 23.1442 20.8499 22.832 20.8356 22.5186C20.8476 22.0569 20.6774 21.609 20.3618 21.2718C19.9552 20.8571 19.4835 20.5118 18.9654 20.2495C18.3545 19.9252 17.4818 19.5387 16.3723 19.065C15.3753 18.6679 14.419 18.1752 13.517 17.5938C12.8426 17.1452 12.2546 16.6478 11.8464 15.948Z" fill="white"/>
</g>
<defs>
<radialGradient id="paint0_radial_523_5091" cx="0" cy="0" r="1" gradientUnits="userSpaceOnUse" gradientTransform="translate(17.0725 18.7844) scale(19.9507)">
<stop/>
<stop offset="1" stop-opacity="0"/>
</radialGradient>
<linearGradient id="paint1_linear_523_5091" x1="11.3976" y1="6.597" x2="28.254" y2="35.7967" gradientUnits="userSpaceOnUse">
<stop stop-color="#4230C4"/>
<stop offset="1" stop-color="#007CC1"/>
</linearGradient>
<linearGradient id="paint2_linear_523_5091" x1="16.5219" y1="34.8116" x2="19.4644" y2="1.2235" gradientUnits="userSpaceOnUse">
<stop stop-color="#4230C4"/>
<stop offset="1" stop-color="#4E3BD8"/>
</linearGradient>
<clipPath id="clip0_523_5091">
<rect width="36" height="36" fill="white"/>
</clipPath>
</defs>
</svg>
